<?xml version="1.0" standalone="no"?>
<!DOCTYPE svg PUBLIC "-//W3C//DTD SVG 20010904//EN"
 "http://www.w3.org/TR/2001/REC-SVG-20010904/DTD/svg10.dtd">
<svg version="1.0" xmlns="http://www.w3.org/2000/svg"
 width="512.000000pt" height="512.000000pt" viewBox="0 0 512.000000 512.000000"
 preserveAspectRatio="xMidYMid meet">

<g transform="translate(0.000000,512.000000) scale(0.100000,-0.100000)"
fill="#000000" stroke="none">
<path d="M934 5101 c-49 -22 -80 -62 -93 -122 -13 -55 -14 -1029 -1 -1083 10
-45 34 -81 74 -110 25 -19 43 -21 239 -24 240 -3 255 1 311 71 l31 39 3 541
c3 565 2 589 -40 642 -44 56 -83 65 -293 65 -164 0 -196 -3 -231 -19z"/>
<path d="M3715 5101 c-49 -22 -73 -48 -91 -98 -17 -48 -20 -1055 -4 -1115 14
-48 55 -97 97 -114 46 -20 410 -20 456 0 42 17 83 66 97 114 16 60 13 1067 -4
1115 -18 50 -42 76 -91 98 -34 16 -67 19 -230 19 -163 0 -196 -3 -230 -19z"/>
<path d="M420 4539 c-112 -22 -254 -128 -304 -227 -60 -118 -56 21 -56 -2037
0 -2054 -4 -1919 55 -2035 30 -60 111 -140 179 -179 111 -64 -12 -61 2266 -61
2275 0 2155 -3 2264 60 105 60 181 154 216 269 20 62 20 103 20 1945 0 1702
-2 1888 -16 1937 -54 182 -195 305 -381 334 l-43 7 0 -329 c0 -358 -7 -417
-55 -514 -61 -121 -179 -221 -306 -259 -58 -18 -96 -20 -309 -20 -194 0 -253
3 -298 16 -179 52 -328 214 -362 393 -5 29 -10 202 -10 382 l0 329 -720 0
-720 0 0 -329 c0 -180 -5 -353 -10 -382 -34 -179 -183 -341 -362 -393 -45 -13
-104 -16 -298 -16 -213 0 -251 2 -309 20 -127 38 -245 138 -306 259 -48 96
-55 156 -55 514 0 368 9 333 -80 316z m3961 -1814 c23 -16 52 -48 63 -70 21
-40 21 -45 21 -1030 0 -985 0 -990 -21 -1030 -11 -22 -40 -53 -63 -70 l-43
-30 -1782 0 -1783 0 -40 28 c-22 15 -50 46 -64 70 l-24 42 0 990 c0 944 1 992
18 1024 23 42 63 79 102 97 25 11 343 13 1802 11 l1771 -2 43 -30z"/>
<path d="M1288 2394 c-54 -29 -58 -51 -58 -310 l0 -236 33 -33 c43 -43 74 -47
322 -43 291 4 280 -8 280 324 0 328 15 314 -320 313 -184 0 -235 -3 -257 -15z"/>
<path d="M2305 2395 c-57 -29 -60 -39 -63 -286 -5 -347 -18 -334 318 -334 336
0 323 -13 318 334 -3 248 -6 258 -64 286 -46 22 -465 21 -509 0z"/>
<path d="M3321 2397 c-13 -6 -34 -25 -45 -40 -20 -27 -21 -41 -21 -261 0 -332
-11 -320 280 -324 248 -4 279 0 322 43 l33 33 0 236 c0 343 16 326 -317 326
-161 0 -235 -4 -252 -13z"/>
<path d="M1315 1392 c-31 -11 -50 -25 -68 -52 -15 -21 -17 -55 -17 -258 0
-260 4 -277 64 -306 28 -13 71 -16 250 -16 333 0 321 -12 321 316 0 334 15
318 -305 321 -124 1 -234 -1 -245 -5z"/>
<path d="M2310 1382 c-66 -32 -71 -57 -68 -319 l3 -233 33 -32 32 -33 250 0
250 0 32 33 33 32 3 233 c4 345 11 337 -318 337 -185 0 -220 -2 -250 -18z"/>
<path d="M3343 1393 c-13 -2 -36 -18 -52 -34 -39 -38 -44 -83 -39 -325 5 -280
-2 -274 324 -274 179 0 222 3 250 16 60 29 64 46 64 304 0 331 16 314 -300
316 -124 1 -235 0 -247 -3z"/>
</g>
</svg>
