<?xml version="1.0" standalone="no"?>
<!DOCTYPE svg PUBLIC "-//W3C//DTD SVG 20010904//EN"
 "http://www.w3.org/TR/2001/REC-SVG-20010904/DTD/svg10.dtd">
<svg version="1.0" xmlns="http://www.w3.org/2000/svg"
 width="225.000000pt" height="225.000000pt" viewBox="0 0 225.000000 225.000000"
 preserveAspectRatio="xMidYMid meet">

<g transform="translate(0.000000,225.000000) scale(0.100000,-0.100000)"
fill="#000000" stroke="none">
<path d="M948 2234 c-230 -35 -451 -148 -617 -315 -170 -169 -280 -388 -316
-626 -19 -124 -19 -212 0 -336 77 -510 482 -895 1000 -949 460 -48 908 200
1115 617 276 557 49 1230 -508 1509 -194 98 -449 136 -674 100z m-168 -496
c25 -13 54 -37 66 -55 23 -34 74 -206 74 -248 0 -39 -24 -88 -64 -133 l-36
-39 15 -44 c61 -172 213 -323 385 -384 l44 -15 35 34 c80 76 130 81 290 31 98
-31 142 -67 162 -133 19 -65 1 -110 -76 -187 -76 -76 -98 -83 -234 -66 -137
17 -230 44 -356 106 -328 161 -541 465 -586 836 -7 53 -9 112 -5 132 13 72
146 187 216 187 14 0 46 -10 70 -22z"/>
</g>
</svg>
