<?xml version="1.0" standalone="no"?>
<!DOCTYPE svg PUBLIC "-//W3C//DTD SVG 20010904//EN"
 "http://www.w3.org/TR/2001/REC-SVG-20010904/DTD/svg10.dtd">
<svg version="1.0" xmlns="http://www.w3.org/2000/svg"
 width="512.000000pt" height="512.000000pt" viewBox="0 0 512.000000 512.000000"
 preserveAspectRatio="xMidYMid meet">

<g transform="translate(0.000000,512.000000) scale(0.100000,-0.100000)"
fill="#000000" stroke="none">
<path d="M2316 4944 c-461 -83 -830 -425 -953 -883 -34 -129 -43 -361 -19
-500 87 -500 479 -890 981 -978 124 -21 368 -13 480 17 411 107 723 396 855
788 231 690 -213 1431 -934 1557 -109 19 -303 18 -410 -1z"/>
<path d="M1487 2541 c-448 -306 -723 -737 -814 -1278 -15 -93 -18 -170 -18
-555 0 -435 1 -447 21 -474 11 -15 33 -37 48 -48 l27 -21 1774 0 1774 0 28 21
c15 12 37 36 48 55 19 32 20 55 23 349 5 521 -16 735 -99 985 -117 351 -346
672 -639 895 -87 66 -185 130 -199 130 -5 0 -43 -24 -85 -54 -147 -105 -361
-198 -556 -241 -118 -26 -390 -31 -525 -10 -211 33 -415 114 -607 241 -53 35
-100 64 -105 64 -5 0 -48 -27 -96 -59z"/>
</g>
</svg>
